# MagicaVoxel @ Ephtracy

# material
mtllib 1.mtl
usemtl palette

# normals
vn -1 0 0
vn 1 0 0
vn 0 0 1
vn 0 0 -1
vn 0 -1 0
vn 0 1 0

# texcoords
vt 0.689453 0.5
vt 0.923828 0.5
vt 0.978516 0.5

# verts
v -4 15 1
v -4 15 -1
v -4 19 1
v -4 19 -1
v -3 0 3
v -3 0 -3
v -3 2 3
v -3 2 -3
v -3 4 3
v -3 4 -3
v -3 6 3
v -3 6 -3
v -3 8 3
v -3 8 -3
v -3 10 3
v -3 10 -3
v -3 12 3
v -3 12 -3
v -3 14 3
v -3 14 -3
v -3 15 1
v -3 15 -1
v -3 16 3
v -3 16 1
v -3 16 -1
v -3 16 -3
v -3 18 3
v -3 18 1
v -3 18 -1
v -3 18 -3
v 0 18 1
v 0 18 -1
v 0 19 1
v 0 19 -1
v 3 0 3
v 3 0 -3
v 3 2 3
v 3 2 -3
v 3 4 3
v 3 4 -3
v 3 6 3
v 3 6 -3
v 3 8 3
v 3 8 -3
v 3 10 3
v 3 10 -3
v 3 12 3
v 3 12 -3
v 3 14 3
v 3 14 -3
v 3 16 3
v 3 16 -3
v 3 18 3
v 3 18 -3
v -3 0 3
v -3 2 3
v -3 4 3
v -3 6 3
v -3 8 3
v -3 10 3
v -3 12 3
v -3 14 3
v -3 16 3
v -3 18 3
v 3 0 3
v 3 2 3
v 3 4 3
v 3 6 3
v 3 8 3
v 3 10 3
v 3 12 3
v 3 14 3
v 3 16 3
v 3 18 3
v -4 15 1
v -4 19 1
v -3 15 1
v -3 16 1
v -3 18 1
v 0 18 1
v 0 19 1
v -4 15 -1
v -4 19 -1
v -3 15 -1
v -3 16 -1
v -3 18 -1
v 0 18 -1
v 0 19 -1
v -3 0 -3
v -3 2 -3
v -3 4 -3
v -3 6 -3
v -3 8 -3
v -3 10 -3
v -3 12 -3
v -3 14 -3
v -3 16 -3
v -3 18 -3
v 3 0 -3
v 3 2 -3
v 3 4 -3
v 3 6 -3
v 3 8 -3
v 3 10 -3
v 3 12 -3
v 3 14 -3
v 3 16 -3
v 3 18 -3
v -3 0 3
v 3 0 3
v -3 0 -3
v 3 0 -3
v -4 15 1
v -3 15 1
v -4 15 -1
v -3 15 -1
v -3 18 3
v 3 18 3
v -3 18 1
v 0 18 1
v -3 18 -1
v 0 18 -1
v -3 18 -3
v 3 18 -3
v -4 19 1
v 0 19 1
v -4 19 -1
v 0 19 -1

# faces
f 3/3/1 2/3/1 1/3/1
f 4/3/1 2/3/1 3/3/1
f 7/2/1 6/2/1 5/2/1
f 8/2/1 6/2/1 7/2/1
f 9/1/1 8/1/1 7/1/1
f 10/1/1 8/1/1 9/1/1
f 11/2/1 10/2/1 9/2/1
f 12/2/1 10/2/1 11/2/1
f 13/1/1 12/1/1 11/1/1
f 14/1/1 12/1/1 13/1/1
f 15/2/1 14/2/1 13/2/1
f 16/2/1 14/2/1 15/2/1
f 17/1/1 16/1/1 15/1/1
f 18/1/1 16/1/1 17/1/1
f 19/2/1 18/2/1 17/2/1
f 20/2/1 18/2/1 19/2/1
f 21/1/1 20/1/1 19/1/1
f 22/1/1 20/1/1 21/1/1
f 23/1/1 21/1/1 19/1/1
f 24/1/1 21/1/1 23/1/1
f 25/1/1 20/1/1 22/1/1
f 26/1/1 20/1/1 25/1/1
f 27/2/1 24/2/1 23/2/1
f 28/2/1 24/2/1 27/2/1
f 29/2/1 26/2/1 25/2/1
f 30/2/1 26/2/1 29/2/1
f 31/3/2 32/3/2 33/3/2
f 33/3/2 32/3/2 34/3/2
f 35/2/2 36/2/2 37/2/2
f 37/2/2 36/2/2 38/2/2
f 37/1/2 38/1/2 39/1/2
f 39/1/2 38/1/2 40/1/2
f 39/2/2 40/2/2 41/2/2
f 41/2/2 40/2/2 42/2/2
f 41/1/2 42/1/2 43/1/2
f 43/1/2 42/1/2 44/1/2
f 43/2/2 44/2/2 45/2/2
f 45/2/2 44/2/2 46/2/2
f 45/1/2 46/1/2 47/1/2
f 47/1/2 46/1/2 48/1/2
f 47/2/2 48/2/2 49/2/2
f 49/2/2 48/2/2 50/2/2
f 49/1/2 50/1/2 51/1/2
f 51/1/2 50/1/2 52/1/2
f 51/2/2 52/2/2 53/2/2
f 53/2/2 52/2/2 54/2/2
f 65/2/3 56/2/3 55/2/3
f 66/1/3 57/1/3 56/1/3
f 66/2/3 56/2/3 65/2/3
f 67/2/3 58/2/3 57/2/3
f 67/1/3 57/1/3 66/1/3
f 68/1/3 59/1/3 58/1/3
f 68/2/3 58/2/3 67/2/3
f 69/2/3 60/2/3 59/2/3
f 69/1/3 59/1/3 68/1/3
f 70/1/3 61/1/3 60/1/3
f 70/2/3 60/2/3 69/2/3
f 71/2/3 62/2/3 61/2/3
f 71/1/3 61/1/3 70/1/3
f 72/1/3 63/1/3 62/1/3
f 72/2/3 62/2/3 71/2/3
f 73/2/3 64/2/3 63/2/3
f 73/1/3 63/1/3 72/1/3
f 74/2/3 64/2/3 73/2/3
f 77/3/3 76/3/3 75/3/3
f 78/3/3 76/3/3 77/3/3
f 79/3/3 76/3/3 78/3/3
f 80/3/3 76/3/3 79/3/3
f 81/3/3 76/3/3 80/3/3
f 82/3/4 83/3/4 84/3/4
f 84/3/4 83/3/4 85/3/4
f 85/3/4 83/3/4 86/3/4
f 86/3/4 83/3/4 87/3/4
f 87/3/4 83/3/4 88/3/4
f 89/2/4 90/2/4 99/2/4
f 90/1/4 91/1/4 100/1/4
f 99/2/4 90/2/4 100/2/4
f 91/2/4 92/2/4 101/2/4
f 100/1/4 91/1/4 101/1/4
f 92/1/4 93/1/4 102/1/4
f 101/2/4 92/2/4 102/2/4
f 93/2/4 94/2/4 103/2/4
f 102/1/4 93/1/4 103/1/4
f 94/1/4 95/1/4 104/1/4
f 103/2/4 94/2/4 104/2/4
f 95/2/4 96/2/4 105/2/4
f 104/1/4 95/1/4 105/1/4
f 96/1/4 97/1/4 106/1/4
f 105/2/4 96/2/4 106/2/4
f 97/2/4 98/2/4 107/2/4
f 106/1/4 97/1/4 107/1/4
f 107/2/4 98/2/4 108/2/4
f 111/2/5 110/2/5 109/2/5
f 112/2/5 110/2/5 111/2/5
f 115/3/5 114/3/5 113/3/5
f 116/3/5 114/3/5 115/3/5
f 117/2/6 118/2/6 119/2/6
f 119/2/6 118/2/6 120/2/6
f 120/2/6 118/2/6 122/2/6
f 121/2/6 122/2/6 123/2/6
f 122/2/6 118/2/6 124/2/6
f 123/2/6 122/2/6 124/2/6
f 125/3/6 126/3/6 127/3/6
f 127/3/6 126/3/6 128/3/6
