# MagicaVoxel @ Ephtracy

# material
mtllib 6.mtl
usemtl palette

# normals
vn -1 0 0
vn 1 0 0
vn 0 0 1
vn 0 0 -1
vn 0 -1 0
vn 0 1 0

# texcoords
vt 0.251953 0.5
vt 0.291016 0.5
vt 0.689453 0.5
vt 0.943359 0.5
vt 0.982422 0.5

# verts
v -10 0 9
v -10 0 4
v -10 1 9
v -10 1 4
v -10 9 4
v -10 9 -8
v -10 10 4
v -10 10 -8
v -9 0 11
v -9 0 9
v -9 0 4
v -9 0 -11
v -9 1 9
v -9 1 4
v -9 2 11
v -9 2 -11
v -9 8 3
v -9 8 -7
v -9 9 5
v -9 9 4
v -9 9 3
v -9 9 -7
v -9 9 -8
v -9 9 -9
v -9 10 5
v -9 10 4
v -9 10 -8
v -9 10 -9
v -9 11 8
v -9 11 4
v -9 11 2
v -9 11 -2
v -9 11 -4
v -9 11 -8
v -9 12 8
v -9 12 4
v -9 12 2
v -9 12 -2
v -9 12 -4
v -9 12 -8
v -9 17 11
v -9 17 -11
v -9 18 11
v -9 18 -11
v -8 2 10
v -8 2 8
v -8 2 5
v -8 2 -10
v -8 4 2
v -8 4 -7
v -8 7 8
v -8 7 5
v -8 8 3
v -8 8 2
v -8 8 -7
v -8 9 10
v -8 9 5
v -8 9 3
v -8 9 -7
v -8 9 -9
v -8 9 -10
v -8 10 10
v -8 10 5
v -8 10 -9
v -8 10 -10
v -8 11 8
v -8 11 4
v -8 11 2
v -8 11 -2
v -8 11 -4
v -8 11 -8
v -8 12 8
v -8 12 7
v -8 12 5
v -8 12 4
v -8 12 2
v -8 12 1
v -8 12 -1
v -8 12 -2
v -8 12 -4
v -8 12 -5
v -8 12 -7
v -8 12 -8
v -8 15 7
v -8 15 5
v -8 15 1
v -8 15 -1
v -8 15 -5
v -8 15 -7
v -8 16 10
v -8 16 -10
v -8 17 10
v -8 17 -10
v -8 18 10
v -8 18 -10
v -8 19 10
v -8 19 -10
v -7 11 11
v -7 11 10
v -7 11 -10
v -7 11 -11
v -7 12 11
v -7 12 10
v -7 12 -10
v -7 12 -11
v 2 11 11
v 2 11 10
v 2 11 -10
v 2 11 -11
v 2 12 11
v 2 12 10
v 2 12 -10
v 2 12 -11
v 7 18 9
v 7 18 -9
v 7 19 9
v 7 19 -9
v -7 18 9
v -7 18 -9
v -7 19 9
v -7 19 -9
v -2 11 11
v -2 11 10
v -2 11 -10
v -2 11 -11
v -2 12 11
v -2 12 10
v -2 12 -10
v -2 12 -11
v 7 11 11
v 7 11 10
v 7 11 -10
v 7 11 -11
v 7 12 11
v 7 12 10
v 7 12 -10
v 7 12 -11
v 8 2 10
v 8 2 8
v 8 2 5
v 8 2 -10
v 8 4 2
v 8 4 -7
v 8 7 8
v 8 7 5
v 8 8 3
v 8 8 2
v 8 8 -7
v 8 9 10
v 8 9 5
v 8 9 3
v 8 9 -7
v 8 9 -9
v 8 9 -10
v 8 10 10
v 8 10 5
v 8 10 -9
v 8 10 -10
v 8 11 8
v 8 11 4
v 8 11 2
v 8 11 -2
v 8 11 -4
v 8 11 -8
v 8 12 8
v 8 12 7
v 8 12 5
v 8 12 4
v 8 12 2
v 8 12 1
v 8 12 -1
v 8 12 -2
v 8 12 -4
v 8 12 -5
v 8 12 -7
v 8 12 -8
v 8 15 7
v 8 15 5
v 8 15 1
v 8 15 -1
v 8 15 -5
v 8 15 -7
v 8 16 10
v 8 16 -10
v 8 17 10
v 8 17 -10
v 8 18 10
v 8 18 -10
v 8 19 10
v 8 19 -10
v 9 0 11
v 9 0 9
v 9 0 4
v 9 0 -11
v 9 1 9
v 9 1 4
v 9 2 11
v 9 2 -11
v 9 8 3
v 9 8 -7
v 9 9 5
v 9 9 4
v 9 9 3
v 9 9 -7
v 9 9 -8
v 9 9 -9
v 9 10 5
v 9 10 4
v 9 10 -8
v 9 10 -9
v 9 11 8
v 9 11 4
v 9 11 2
v 9 11 -2
v 9 11 -4
v 9 11 -8
v 9 12 8
v 9 12 4
v 9 12 2
v 9 12 -2
v 9 12 -4
v 9 12 -8
v 9 17 11
v 9 17 -11
v 9 18 11
v 9 18 -11
v 10 0 9
v 10 0 4
v 10 1 9
v 10 1 4
v 10 9 4
v 10 9 -8
v 10 10 4
v 10 10 -8
v -9 0 11
v -9 2 11
v -9 17 11
v -9 18 11
v -7 11 11
v -7 12 11
v -2 11 11
v -2 12 11
v 2 11 11
v 2 12 11
v 7 11 11
v 7 12 11
v 9 0 11
v 9 2 11
v 9 17 11
v 9 18 11
v -8 2 10
v -8 9 10
v -8 10 10
v -8 16 10
v -8 17 10
v -8 18 10
v -8 19 10
v -7 11 10
v -7 12 10
v -6 12 10
v -6 15 10
v -3 12 10
v -3 15 10
v -2 11 10
v -2 12 10
v 2 11 10
v 2 12 10
v 3 12 10
v 3 15 10
v 6 12 10
v 6 15 10
v 7 11 10
v 7 12 10
v 8 2 10
v 8 9 10
v 8 10 10
v 8 16 10
v 8 17 10
v 8 18 10
v 8 19 10
v -10 0 9
v -10 1 9
v -9 0 9
v -9 1 9
v 9 0 9
v 9 1 9
v 10 0 9
v 10 1 9
v -9 11 8
v -9 12 8
v -8 11 8
v -8 12 8
v 8 11 8
v 8 12 8
v 9 11 8
v 9 12 8
v -9 9 5
v -9 10 5
v -8 9 5
v -8 10 5
v 8 9 5
v 8 10 5
v 9 9 5
v 9 10 5
v -10 9 4
v -10 10 4
v -9 9 4
v -9 10 4
v 9 9 4
v 9 10 4
v 10 9 4
v 10 10 4
v -9 8 3
v -9 9 3
v -8 8 3
v -8 9 3
v 8 8 3
v 8 9 3
v 9 8 3
v 9 9 3
v -9 11 2
v -9 12 2
v -8 11 2
v -8 12 2
v 8 11 2
v 8 12 2
v 9 11 2
v 9 12 2
v -9 11 -4
v -9 12 -4
v -8 11 -4
v -8 12 -4
v 8 11 -4
v 8 12 -4
v 9 11 -4
v 9 12 -4
v -7 18 -9
v -7 19 -9
v 7 18 -9
v 7 19 -9
v -7 18 9
v -7 19 9
v 7 18 9
v 7 19 9
v -10 0 4
v -10 1 4
v -9 0 4
v -9 1 4
v -9 11 4
v -9 12 4
v -8 11 4
v -8 12 4
v 8 11 4
v 8 12 4
v 9 0 4
v 9 1 4
v 9 11 4
v 9 12 4
v 10 0 4
v 10 1 4
v -9 11 -2
v -9 12 -2
v -8 11 -2
v -8 12 -2
v 8 11 -2
v 8 12 -2
v 9 11 -2
v 9 12 -2
v -9 8 -7
v -9 9 -7
v -8 8 -7
v -8 9 -7
v 8 8 -7
v 8 9 -7
v 9 8 -7
v 9 9 -7
v -10 9 -8
v -10 10 -8
v -9 9 -8
v -9 10 -8
v -9 11 -8
v -9 12 -8
v -8 11 -8
v -8 12 -8
v 8 11 -8
v 8 12 -8
v 9 9 -8
v 9 10 -8
v 9 11 -8
v 9 12 -8
v 10 9 -8
v 10 10 -8
v -9 9 -9
v -9 10 -9
v -8 9 -9
v -8 10 -9
v 8 9 -9
v 8 10 -9
v 9 9 -9
v 9 10 -9
v -8 2 -10
v -8 9 -10
v -8 10 -10
v -8 16 -10
v -8 17 -10
v -8 18 -10
v -8 19 -10
v -7 11 -10
v -7 12 -10
v -6 12 -10
v -6 15 -10
v -3 12 -10
v -3 15 -10
v -2 11 -10
v -2 12 -10
v 2 11 -10
v 2 12 -10
v 3 12 -10
v 3 15 -10
v 6 12 -10
v 6 15 -10
v 7 11 -10
v 7 12 -10
v 8 2 -10
v 8 9 -10
v 8 10 -10
v 8 16 -10
v 8 17 -10
v 8 18 -10
v 8 19 -10
v -9 0 -11
v -9 2 -11
v -9 17 -11
v -9 18 -11
v -7 11 -11
v -7 12 -11
v -2 11 -11
v -2 12 -11
v 2 11 -11
v 2 12 -11
v 7 11 -11
v 7 12 -11
v 9 0 -11
v 9 2 -11
v 9 17 -11
v 9 18 -11
v -9 0 11
v 9 0 11
v -10 0 9
v -9 0 9
v 9 0 9
v 10 0 9
v -10 0 4
v -9 0 4
v 9 0 4
v 10 0 4
v -9 0 -11
v 9 0 -11
v -9 8 3
v -8 8 3
v 8 8 3
v 9 8 3
v -8 8 2
v 8 8 2
v -9 8 -7
v -8 8 -7
v 8 8 -7
v 9 8 -7
v -9 9 5
v -8 9 5
v 8 9 5
v 9 9 5
v -10 9 4
v -9 9 4
v 9 9 4
v 10 9 4
v -9 9 3
v -8 9 3
v 8 9 3
v 9 9 3
v -9 9 -7
v -8 9 -7
v 8 9 -7
v 9 9 -7
v -10 9 -8
v -9 9 -8
v 9 9 -8
v 10 9 -8
v -9 9 -9
v -8 9 -9
v 8 9 -9
v 9 9 -9
v -7 11 11
v -2 11 11
v 2 11 11
v 7 11 11
v -7 11 10
v -2 11 10
v 2 11 10
v 7 11 10
v -9 11 8
v -8 11 8
v 8 11 8
v 9 11 8
v -9 11 4
v -8 11 4
v 8 11 4
v 9 11 4
v -9 11 2
v -8 11 2
v 8 11 2
v 9 11 2
v -9 11 -2
v -8 11 -2
v 8 11 -2
v 9 11 -2
v -9 11 -4
v -8 11 -4
v 8 11 -4
v 9 11 -4
v -9 11 -8
v -8 11 -8
v 8 11 -8
v 9 11 -8
v -7 11 -10
v -2 11 -10
v 2 11 -10
v 7 11 -10
v -7 11 -11
v -2 11 -11
v 2 11 -11
v 7 11 -11
v -9 17 11
v 9 17 11
v -8 17 10
v 8 17 10
v -8 17 -10
v 8 17 -10
v -9 17 -11
v 9 17 -11
v -10 1 9
v -9 1 9
v 9 1 9
v 10 1 9
v -10 1 4
v -9 1 4
v 9 1 4
v 10 1 4
v -9 2 11
v 9 2 11
v -8 2 10
v 8 2 10
v -8 2 8
v 8 2 8
v -8 2 5
v 8 2 5
v -8 2 -10
v 8 2 -10
v -9 2 -11
v 9 2 -11
v -9 10 5
v -8 10 5
v 8 10 5
v 9 10 5
v -10 10 4
v -9 10 4
v 9 10 4
v 10 10 4
v -10 10 -8
v -9 10 -8
v 9 10 -8
v 10 10 -8
v -9 10 -9
v -8 10 -9
v 8 10 -9
v 9 10 -9
v -7 12 11
v -2 12 11
v 2 12 11
v 7 12 11
v -7 12 10
v -6 12 10
v -3 12 10
v -2 12 10
v 2 12 10
v 3 12 10
v 6 12 10
v 7 12 10
v -9 12 8
v -8 12 8
v 8 12 8
v 9 12 8
v -8 12 7
v 8 12 7
v -8 12 5
v 8 12 5
v -9 12 4
v -8 12 4
v 8 12 4
v 9 12 4
v -9 12 2
v -8 12 2
v 8 12 2
v 9 12 2
v -8 12 1
v 8 12 1
v -8 12 -1
v 8 12 -1
v -9 12 -2
v -8 12 -2
v 8 12 -2
v 9 12 -2
v -9 12 -4
v -8 12 -4
v 8 12 -4
v 9 12 -4
v -8 12 -5
v 8 12 -5
v -8 12 -7
v 8 12 -7
v -9 12 -8
v -8 12 -8
v 8 12 -8
v 9 12 -8
v -7 12 -10
v -6 12 -10
v -3 12 -10
v -2 12 -10
v 2 12 -10
v 3 12 -10
v 6 12 -10
v 7 12 -10
v -7 12 -11
v -2 12 -11
v 2 12 -11
v 7 12 -11
v -9 18 11
v 9 18 11
v -8 18 10
v 8 18 10
v -7 18 9
v 7 18 9
v -7 18 -9
v 7 18 -9
v -8 18 -10
v 8 18 -10
v -9 18 -11
v 9 18 -11
v -8 19 10
v 8 19 10
v -7 19 9
v 7 19 9
v -7 19 -9
v 7 19 -9
v -8 19 -10
v 8 19 -10

# faces
f 3/1/1 2/1/1 1/1/1
f 4/1/1 2/1/1 3/1/1
f 7/1/1 6/1/1 5/1/1
f 8/1/1 6/1/1 7/1/1
f 13/1/1 10/1/1 9/1/1
f 14/1/1 12/1/1 11/1/1
f 15/1/1 13/1/1 9/1/1
f 15/1/1 14/1/1 13/1/1
f 16/1/1 12/1/1 14/1/1
f 16/1/1 14/1/1 15/1/1
f 21/1/1 18/1/1 17/1/1
f 22/1/1 18/1/1 21/1/1
f 25/1/1 20/1/1 19/1/1
f 26/1/1 20/1/1 25/1/1
f 27/1/1 24/1/1 23/1/1
f 28/1/1 24/1/1 27/1/1
f 35/1/1 30/1/1 29/1/1
f 36/1/1 30/1/1 35/1/1
f 37/1/1 32/1/1 31/1/1
f 38/1/1 32/1/1 37/1/1
f 39/1/1 34/1/1 33/1/1
f 40/1/1 34/1/1 39/1/1
f 43/1/1 42/1/1 41/1/1
f 44/1/1 42/1/1 43/1/1
f 49/2/1 48/2/1 47/2/1
f 50/2/1 48/2/1 49/2/1
f 51/2/1 46/2/1 45/2/1
f 51/4/1 47/4/1 46/4/1
f 52/2/1 49/2/1 47/2/1
f 52/4/1 47/4/1 51/4/1
f 53/2/1 52/2/1 51/2/1
f 53/2/1 49/2/1 52/2/1
f 54/3/1 50/3/1 49/3/1
f 54/2/1 49/2/1 53/2/1
f 55/2/1 48/2/1 50/2/1
f 55/3/1 50/3/1 54/3/1
f 56/2/1 53/2/1 51/2/1
f 56/2/1 51/2/1 45/2/1
f 57/2/1 53/2/1 56/2/1
f 58/2/1 53/2/1 57/2/1
f 59/2/1 48/2/1 55/2/1
f 60/2/1 48/2/1 59/2/1
f 61/2/1 48/2/1 60/2/1
f 62/1/1 57/1/1 56/1/1
f 63/1/1 57/1/1 62/1/1
f 64/1/1 61/1/1 60/1/1
f 65/1/1 61/1/1 64/1/1
f 66/2/1 63/2/1 62/2/1
f 66/2/1 64/2/1 63/2/1
f 66/2/1 65/2/1 64/2/1
f 67/2/1 65/2/1 66/2/1
f 68/2/1 65/2/1 67/2/1
f 69/2/1 65/2/1 68/2/1
f 70/2/1 65/2/1 69/2/1
f 71/2/1 65/2/1 70/2/1
f 72/2/1 66/2/1 62/2/1
f 75/2/1 68/2/1 67/2/1
f 76/2/1 68/2/1 75/2/1
f 79/2/1 70/2/1 69/2/1
f 80/2/1 70/2/1 79/2/1
f 83/2/1 65/2/1 71/2/1
f 84/3/1 74/3/1 73/3/1
f 84/2/1 73/2/1 72/2/1
f 85/2/1 75/2/1 74/2/1
f 85/3/1 74/3/1 84/3/1
f 85/2/1 76/2/1 75/2/1
f 85/2/1 77/2/1 76/2/1
f 86/3/1 78/3/1 77/3/1
f 86/2/1 77/2/1 85/2/1
f 87/2/1 81/2/1 80/2/1
f 87/3/1 78/3/1 86/3/1
f 87/2/1 79/2/1 78/2/1
f 87/2/1 80/2/1 79/2/1
f 88/3/1 82/3/1 81/3/1
f 88/2/1 81/2/1 87/2/1
f 89/2/1 83/2/1 82/2/1
f 89/3/1 82/3/1 88/3/1
f 90/2/1 87/2/1 86/2/1
f 90/2/1 85/2/1 84/2/1
f 90/2/1 89/2/1 88/2/1
f 90/2/1 88/2/1 87/2/1
f 90/2/1 86/2/1 85/2/1
f 90/2/1 72/2/1 62/2/1
f 90/2/1 84/2/1 72/2/1
f 91/2/1 83/2/1 89/2/1
f 91/2/1 89/2/1 90/2/1
f 91/2/1 65/2/1 83/2/1
f 92/5/1 91/5/1 90/5/1
f 93/5/1 91/5/1 92/5/1
f 96/1/1 95/1/1 94/1/1
f 97/1/1 95/1/1 96/1/1
f 102/1/1 99/1/1 98/1/1
f 103/1/1 99/1/1 102/1/1
f 104/1/1 101/1/1 100/1/1
f 105/1/1 101/1/1 104/1/1
f 110/1/1 107/1/1 106/1/1
f 111/1/1 107/1/1 110/1/1
f 112/1/1 109/1/1 108/1/1
f 113/1/1 109/1/1 112/1/1
f 116/1/1 115/1/1 114/1/1
f 117/1/1 115/1/1 116/1/1
f 118/1/2 119/1/2 120/1/2
f 120/1/2 119/1/2 121/1/2
f 122/1/2 123/1/2 126/1/2
f 126/1/2 123/1/2 127/1/2
f 124/1/2 125/1/2 128/1/2
f 128/1/2 125/1/2 129/1/2
f 130/1/2 131/1/2 134/1/2
f 134/1/2 131/1/2 135/1/2
f 132/1/2 133/1/2 136/1/2
f 136/1/2 133/1/2 137/1/2
f 140/2/2 141/2/2 142/2/2
f 142/2/2 141/2/2 143/2/2
f 138/2/2 139/2/2 144/2/2
f 139/4/2 140/4/2 144/4/2
f 140/2/2 142/2/2 145/2/2
f 144/4/2 140/4/2 145/4/2
f 144/2/2 145/2/2 146/2/2
f 145/2/2 142/2/2 146/2/2
f 142/3/2 143/3/2 147/3/2
f 146/2/2 142/2/2 147/2/2
f 143/2/2 141/2/2 148/2/2
f 147/3/2 143/3/2 148/3/2
f 144/2/2 146/2/2 149/2/2
f 138/2/2 144/2/2 149/2/2
f 149/2/2 146/2/2 150/2/2
f 150/2/2 146/2/2 151/2/2
f 148/2/2 141/2/2 152/2/2
f 152/2/2 141/2/2 153/2/2
f 153/2/2 141/2/2 154/2/2
f 149/1/2 150/1/2 155/1/2
f 155/1/2 150/1/2 156/1/2
f 153/1/2 154/1/2 157/1/2
f 157/1/2 154/1/2 158/1/2
f 155/2/2 156/2/2 159/2/2
f 156/2/2 157/2/2 159/2/2
f 157/2/2 158/2/2 159/2/2
f 159/2/2 158/2/2 160/2/2
f 160/2/2 158/2/2 161/2/2
f 161/2/2 158/2/2 162/2/2
f 162/2/2 158/2/2 163/2/2
f 163/2/2 158/2/2 164/2/2
f 155/2/2 159/2/2 165/2/2
f 160/2/2 161/2/2 168/2/2
f 168/2/2 161/2/2 169/2/2
f 162/2/2 163/2/2 172/2/2
f 172/2/2 163/2/2 173/2/2
f 164/2/2 158/2/2 176/2/2
f 166/3/2 167/3/2 177/3/2
f 165/2/2 166/2/2 177/2/2
f 167/2/2 168/2/2 178/2/2
f 177/3/2 167/3/2 178/3/2
f 168/2/2 169/2/2 178/2/2
f 169/2/2 170/2/2 178/2/2
f 170/3/2 171/3/2 179/3/2
f 178/2/2 170/2/2 179/2/2
f 173/2/2 174/2/2 180/2/2
f 179/3/2 171/3/2 180/3/2
f 171/2/2 172/2/2 180/2/2
f 172/2/2 173/2/2 180/2/2
f 174/3/2 175/3/2 181/3/2
f 180/2/2 174/2/2 181/2/2
f 175/2/2 176/2/2 182/2/2
f 181/3/2 175/3/2 182/3/2
f 179/2/2 180/2/2 183/2/2
f 177/2/2 178/2/2 183/2/2
f 181/2/2 182/2/2 183/2/2
f 180/2/2 181/2/2 183/2/2
f 178/2/2 179/2/2 183/2/2
f 155/2/2 165/2/2 183/2/2
f 165/2/2 177/2/2 183/2/2
f 182/2/2 176/2/2 184/2/2
f 183/2/2 182/2/2 184/2/2
f 176/2/2 158/2/2 184/2/2
f 183/5/2 184/5/2 185/5/2
f 185/5/2 184/5/2 186/5/2
f 187/1/2 188/1/2 189/1/2
f 189/1/2 188/1/2 190/1/2
f 191/1/2 192/1/2 195/1/2
f 193/1/2 194/1/2 196/1/2
f 191/1/2 195/1/2 197/1/2
f 195/1/2 196/1/2 197/1/2
f 196/1/2 194/1/2 198/1/2
f 197/1/2 196/1/2 198/1/2
f 199/1/2 200/1/2 203/1/2
f 203/1/2 200/1/2 204/1/2
f 201/1/2 202/1/2 207/1/2
f 207/1/2 202/1/2 208/1/2
f 205/1/2 206/1/2 209/1/2
f 209/1/2 206/1/2 210/1/2
f 211/1/2 212/1/2 217/1/2
f 217/1/2 212/1/2 218/1/2
f 213/1/2 214/1/2 219/1/2
f 219/1/2 214/1/2 220/1/2
f 215/1/2 216/1/2 221/1/2
f 221/1/2 216/1/2 222/1/2
f 223/1/2 224/1/2 225/1/2
f 225/1/2 224/1/2 226/1/2
f 227/1/2 228/1/2 229/1/2
f 229/1/2 228/1/2 230/1/2
f 231/1/2 232/1/2 233/1/2
f 233/1/2 232/1/2 234/1/2
f 241/1/3 240/1/3 239/1/3
f 242/1/3 240/1/3 241/1/3
f 245/1/3 244/1/3 243/1/3
f 246/1/3 244/1/3 245/1/3
f 247/1/3 236/1/3 235/1/3
f 248/1/3 236/1/3 247/1/3
f 249/1/3 238/1/3 237/1/3
f 250/1/3 238/1/3 249/1/3
f 258/2/3 254/2/3 253/2/3
f 259/2/3 254/2/3 258/2/3
f 260/2/3 254/2/3 259/2/3
f 261/2/3 254/2/3 260/2/3
f 262/3/3 261/3/3 260/3/3
f 263/2/3 254/2/3 261/2/3
f 263/3/3 261/3/3 262/3/3
f 264/2/3 258/2/3 253/2/3
f 265/2/3 263/2/3 262/2/3
f 266/2/3 264/2/3 253/2/3
f 266/2/3 265/2/3 264/2/3
f 267/2/3 263/2/3 265/2/3
f 267/2/3 265/2/3 266/2/3
f 268/2/3 263/2/3 267/2/3
f 269/2/3 254/2/3 263/2/3
f 269/2/3 263/2/3 268/2/3
f 270/3/3 269/3/3 268/3/3
f 271/2/3 254/2/3 269/2/3
f 271/3/3 269/3/3 270/3/3
f 272/2/3 266/2/3 253/2/3
f 273/2/3 271/2/3 270/2/3
f 274/2/3 252/2/3 251/2/3
f 275/1/3 253/1/3 252/1/3
f 275/2/3 252/2/3 274/2/3
f 276/2/3 273/2/3 272/2/3
f 276/1/3 253/1/3 275/1/3
f 276/2/3 272/2/3 253/2/3
f 277/5/3 255/5/3 254/5/3
f 277/2/3 273/2/3 276/2/3
f 277/2/3 254/2/3 271/2/3
f 277/2/3 271/2/3 273/2/3
f 278/5/3 255/5/3 277/5/3
f 279/1/3 257/1/3 256/1/3
f 280/1/3 257/1/3 279/1/3
f 283/1/3 282/1/3 281/1/3
f 284/1/3 282/1/3 283/1/3
f 287/1/3 286/1/3 285/1/3
f 288/1/3 286/1/3 287/1/3
f 291/1/3 290/1/3 289/1/3
f 292/1/3 290/1/3 291/1/3
f 295/1/3 294/1/3 293/1/3
f 296/1/3 294/1/3 295/1/3
f 299/1/3 298/1/3 297/1/3
f 300/1/3 298/1/3 299/1/3
f 303/1/3 302/1/3 301/1/3
f 304/1/3 302/1/3 303/1/3
f 307/1/3 306/1/3 305/1/3
f 308/1/3 306/1/3 307/1/3
f 311/1/3 310/1/3 309/1/3
f 312/1/3 310/1/3 311/1/3
f 315/1/3 314/1/3 313/1/3
f 316/1/3 314/1/3 315/1/3
f 319/1/3 318/1/3 317/1/3
f 320/1/3 318/1/3 319/1/3
f 323/1/3 322/1/3 321/1/3
f 324/1/3 322/1/3 323/1/3
f 327/1/3 326/1/3 325/1/3
f 328/1/3 326/1/3 327/1/3
f 331/1/3 330/1/3 329/1/3
f 332/1/3 330/1/3 331/1/3
f 335/1/3 334/1/3 333/1/3
f 336/1/3 334/1/3 335/1/3
f 339/1/3 338/1/3 337/1/3
f 340/1/3 338/1/3 339/1/3
f 341/1/4 342/1/4 343/1/4
f 343/1/4 342/1/4 344/1/4
f 345/1/4 346/1/4 347/1/4
f 347/1/4 346/1/4 348/1/4
f 349/1/4 350/1/4 351/1/4
f 351/1/4 350/1/4 352/1/4
f 353/1/4 354/1/4 357/1/4
f 357/1/4 354/1/4 358/1/4
f 355/1/4 356/1/4 359/1/4
f 359/1/4 356/1/4 360/1/4
f 361/1/4 362/1/4 363/1/4
f 363/1/4 362/1/4 364/1/4
f 365/1/4 366/1/4 367/1/4
f 367/1/4 366/1/4 368/1/4
f 369/1/4 370/1/4 371/1/4
f 371/1/4 370/1/4 372/1/4
f 373/1/4 374/1/4 375/1/4
f 375/1/4 374/1/4 376/1/4
f 377/1/4 378/1/4 379/1/4
f 379/1/4 378/1/4 380/1/4
f 381/1/4 382/1/4 383/1/4
f 383/1/4 382/1/4 384/1/4
f 385/1/4 386/1/4 389/1/4
f 389/1/4 386/1/4 390/1/4
f 387/1/4 388/1/4 391/1/4
f 391/1/4 388/1/4 392/1/4
f 393/1/4 394/1/4 395/1/4
f 395/1/4 394/1/4 396/1/4
f 397/1/4 398/1/4 399/1/4
f 399/1/4 398/1/4 400/1/4
f 403/2/4 404/2/4 408/2/4
f 408/2/4 404/2/4 409/2/4
f 409/2/4 404/2/4 410/2/4
f 410/2/4 404/2/4 411/2/4
f 410/3/4 411/3/4 412/3/4
f 411/2/4 404/2/4 413/2/4
f 412/3/4 411/3/4 413/3/4
f 403/2/4 408/2/4 414/2/4
f 412/2/4 413/2/4 415/2/4
f 403/2/4 414/2/4 416/2/4
f 414/2/4 415/2/4 416/2/4
f 415/2/4 413/2/4 417/2/4
f 416/2/4 415/2/4 417/2/4
f 417/2/4 413/2/4 418/2/4
f 413/2/4 404/2/4 419/2/4
f 418/2/4 413/2/4 419/2/4
f 418/3/4 419/3/4 420/3/4
f 419/2/4 404/2/4 421/2/4
f 420/3/4 419/3/4 421/3/4
f 403/2/4 416/2/4 422/2/4
f 420/2/4 421/2/4 423/2/4
f 401/2/4 402/2/4 424/2/4
f 402/1/4 403/1/4 425/1/4
f 424/2/4 402/2/4 425/2/4
f 422/2/4 423/2/4 426/2/4
f 425/1/4 403/1/4 426/1/4
f 403/2/4 422/2/4 426/2/4
f 404/5/4 405/5/4 427/5/4
f 426/2/4 423/2/4 427/2/4
f 421/2/4 404/2/4 427/2/4
f 423/2/4 421/2/4 427/2/4
f 427/5/4 405/5/4 428/5/4
f 406/1/4 407/1/4 429/1/4
f 429/1/4 407/1/4 430/1/4
f 435/1/4 436/1/4 437/1/4
f 437/1/4 436/1/4 438/1/4
f 439/1/4 440/1/4 441/1/4
f 441/1/4 440/1/4 442/1/4
f 431/1/4 432/1/4 443/1/4
f 443/1/4 432/1/4 444/1/4
f 433/1/4 434/1/4 445/1/4
f 445/1/4 434/1/4 446/1/4
f 450/1/5 448/1/5 447/1/5
f 451/1/5 448/1/5 450/1/5
f 453/1/5 450/1/5 449/1/5
f 453/1/5 452/1/5 451/1/5
f 453/1/5 451/1/5 450/1/5
f 454/1/5 452/1/5 453/1/5
f 455/1/5 452/1/5 454/1/5
f 456/1/5 452/1/5 455/1/5
f 457/1/5 455/1/5 454/1/5
f 458/1/5 455/1/5 457/1/5
f 463/1/5 460/1/5 459/1/5
f 464/1/5 462/1/5 461/1/5
f 465/1/5 463/1/5 459/1/5
f 466/1/5 463/1/5 465/1/5
f 467/1/5 462/1/5 464/1/5
f 468/1/5 462/1/5 467/1/5
f 474/1/5 470/1/5 469/1/5
f 475/1/5 472/1/5 471/1/5
f 477/1/5 474/1/5 473/1/5
f 477/1/5 470/1/5 474/1/5
f 478/1/5 470/1/5 477/1/5
f 479/1/5 476/1/5 475/1/5
f 479/1/5 475/1/5 471/1/5
f 480/1/5 476/1/5 479/1/5
f 481/1/5 477/1/5 473/1/5
f 484/1/5 476/1/5 480/1/5
f 485/1/5 482/1/5 481/1/5
f 485/1/5 481/1/5 473/1/5
f 486/1/5 482/1/5 485/1/5
f 487/1/5 484/1/5 483/1/5
f 487/1/5 476/1/5 484/1/5
f 488/1/5 476/1/5 487/1/5
f 489/1/5 482/1/5 486/1/5
f 490/1/5 482/1/5 489/1/5
f 491/1/5 487/1/5 483/1/5
f 492/1/5 487/1/5 491/1/5
f 497/1/5 494/1/5 493/1/5
f 498/1/5 494/1/5 497/1/5
f 499/1/5 496/1/5 495/1/5
f 500/1/5 496/1/5 499/1/5
f 505/1/5 502/1/5 501/1/5
f 506/1/5 502/1/5 505/1/5
f 507/1/5 504/1/5 503/1/5
f 508/1/5 504/1/5 507/1/5
f 513/1/5 510/1/5 509/1/5
f 514/1/5 510/1/5 513/1/5
f 515/1/5 512/1/5 511/1/5
f 516/1/5 512/1/5 515/1/5
f 521/1/5 518/1/5 517/1/5
f 522/1/5 518/1/5 521/1/5
f 523/1/5 520/1/5 519/1/5
f 524/1/5 520/1/5 523/1/5
f 529/1/5 526/1/5 525/1/5
f 530/1/5 526/1/5 529/1/5
f 531/1/5 528/1/5 527/1/5
f 532/1/5 528/1/5 531/1/5
f 535/1/5 534/1/5 533/1/5
f 536/1/5 534/1/5 535/1/5
f 537/1/5 535/1/5 533/1/5
f 538/1/5 534/1/5 536/1/5
f 539/1/5 537/1/5 533/1/5
f 539/1/5 538/1/5 537/1/5
f 540/1/5 534/1/5 538/1/5
f 540/1/5 538/1/5 539/1/5
f 541/1/6 542/1/6 545/1/6
f 545/1/6 542/1/6 546/1/6
f 543/1/6 544/1/6 547/1/6
f 547/1/6 544/1/6 548/1/6
f 549/1/6 550/1/6 551/1/6
f 551/1/6 550/1/6 552/1/6
f 549/1/6 551/1/6 553/1/6
f 552/1/6 550/1/6 554/1/6
f 549/1/6 553/1/6 555/1/6
f 554/1/6 550/1/6 556/1/6
f 549/1/6 555/1/6 557/1/6
f 556/1/6 550/1/6 558/1/6
f 549/1/6 557/1/6 559/1/6
f 557/1/6 558/1/6 559/1/6
f 558/1/6 550/1/6 560/1/6
f 559/1/6 558/1/6 560/1/6
f 561/1/6 562/1/6 566/1/6
f 563/1/6 564/1/6 567/1/6
f 565/1/6 566/1/6 569/1/6
f 566/1/6 562/1/6 570/1/6
f 569/1/6 566/1/6 570/1/6
f 567/1/6 568/1/6 571/1/6
f 563/1/6 567/1/6 571/1/6
f 571/1/6 568/1/6 572/1/6
f 570/1/6 562/1/6 573/1/6
f 573/1/6 562/1/6 574/1/6
f 563/1/6 571/1/6 575/1/6
f 575/1/6 571/1/6 576/1/6
f 577/1/6 578/1/6 581/1/6
f 581/1/6 578/1/6 582/1/6
f 582/1/6 578/1/6 583/1/6
f 583/1/6 578/1/6 584/1/6
f 579/1/6 580/1/6 585/1/6
f 585/1/6 580/1/6 586/1/6
f 586/1/6 580/1/6 587/1/6
f 587/1/6 580/1/6 588/1/6
f 589/1/6 590/1/6 593/1/6
f 591/1/6 592/1/6 594/1/6
f 589/1/6 593/1/6 595/1/6
f 594/1/6 592/1/6 596/1/6
f 589/1/6 595/1/6 597/1/6
f 597/1/6 595/1/6 598/1/6
f 596/1/6 592/1/6 599/1/6
f 599/1/6 592/1/6 600/1/6
f 601/1/6 602/1/6 605/1/6
f 603/1/6 604/1/6 606/1/6
f 601/1/6 605/1/6 607/1/6
f 606/1/6 604/1/6 608/1/6
f 601/1/6 607/1/6 609/1/6
f 609/1/6 607/1/6 610/1/6
f 608/1/6 604/1/6 611/1/6
f 611/1/6 604/1/6 612/1/6
f 613/1/6 614/1/6 617/1/6
f 615/1/6 616/1/6 618/1/6
f 613/1/6 617/1/6 619/1/6
f 618/1/6 616/1/6 620/1/6
f 613/1/6 619/1/6 621/1/6
f 621/1/6 619/1/6 622/1/6
f 620/1/6 616/1/6 623/1/6
f 623/1/6 616/1/6 624/1/6
f 625/1/6 626/1/6 633/1/6
f 626/1/6 627/1/6 633/1/6
f 627/1/6 628/1/6 633/1/6
f 633/1/6 628/1/6 634/1/6
f 631/1/6 632/1/6 635/1/6
f 630/1/6 631/1/6 635/1/6
f 629/1/6 630/1/6 635/1/6
f 635/1/6 632/1/6 636/1/6
f 637/1/6 638/1/6 639/1/6
f 639/1/6 638/1/6 640/1/6
f 641/2/6 642/2/6 643/2/6
f 643/2/6 642/2/6 644/2/6
f 637/1/6 639/1/6 645/1/6
f 640/1/6 638/1/6 646/1/6
f 637/1/6 645/1/6 647/1/6
f 645/1/6 646/1/6 647/1/6
f 646/1/6 638/1/6 648/1/6
f 647/1/6 646/1/6 648/1/6
f 649/1/6 650/1/6 651/1/6
f 651/1/6 650/1/6 652/1/6
f 649/1/6 651/1/6 653/1/6
f 652/1/6 650/1/6 654/1/6
f 649/1/6 653/1/6 655/1/6
f 653/1/6 654/1/6 655/1/6
f 654/1/6 650/1/6 656/1/6
f 655/1/6 654/1/6 656/1/6
