# MagicaVoxel @ Ephtracy

# material
mtllib 9.mtl
usemtl palette

# normals
vn -1 0 0
vn 1 0 0
vn 0 0 1
vn 0 0 -1
vn 0 -1 0
vn 0 1 0

# texcoords
vt 0.146484 0.5
vt 0.912109 0.5
vt 0.919922 0.5
vt 0.927734 0.5
vt 0.982422 0.5

# verts
v -11 5 7
v -11 5 -9
v -11 6 7
v -11 6 -9
v -11 16 7
v -11 16 -9
v -11 17 7
v -11 17 -9
v -10 0 6
v -10 0 5
v -10 0 -1
v -10 0 -8
v -10 4 5
v -10 4 -1
v -10 5 6
v -10 5 -8
v -10 6 6
v -10 6 -8
v -10 7 5
v -10 7 -7
v -10 9 5
v -10 9 -7
v -10 10 5
v -10 10 -7
v -10 12 5
v -10 12 -7
v -10 13 5
v -10 13 -7
v -10 15 5
v -10 15 -7
v -10 16 6
v -10 16 -8
v -6 5 10
v -6 5 7
v -6 6 10
v -6 6 7
v -6 16 10
v -6 16 7
v -6 17 10
v -6 17 7
v -5 0 9
v -5 0 8
v -5 0 7
v -5 0 6
v -5 4 8
v -5 4 7
v -5 4 6
v -5 5 9
v -5 5 6
v -5 6 9
v -5 6 6
v -5 16 9
v -5 16 6
v 4 0 9
v 4 0 8
v 4 0 7
v 4 0 6
v 4 4 9
v 4 4 8
v 4 4 7
v 4 4 6
v 5 16 9
v 5 16 6
v 5 17 9
v 5 17 6
v 9 0 6
v 9 0 5
v 9 4 6
v 9 4 5
v 10 16 6
v 10 16 -8
v 10 17 6
v 10 17 -8
v -10 16 6
v -10 16 -8
v -10 17 6
v -10 17 -8
v -9 0 6
v -9 0 5
v -9 4 6
v -9 4 5
v -5 16 9
v -5 16 6
v -5 17 9
v -5 17 6
v -4 0 9
v -4 0 8
v -4 0 7
v -4 0 6
v -4 4 9
v -4 4 8
v -4 4 7
v -4 4 6
v 5 0 9
v 5 0 8
v 5 0 7
v 5 0 6
v 5 4 8
v 5 4 7
v 5 4 6
v 5 5 9
v 5 5 6
v 5 6 9
v 5 6 6
v 5 16 9
v 5 16 6
v 6 5 10
v 6 5 7
v 6 6 10
v 6 6 7
v 6 16 10
v 6 16 7
v 6 17 10
v 6 17 7
v 10 0 6
v 10 0 5
v 10 0 -1
v 10 0 -8
v 10 4 5
v 10 4 -1
v 10 5 6
v 10 5 -8
v 10 6 6
v 10 6 -8
v 10 7 5
v 10 7 -7
v 10 9 5
v 10 9 -7
v 10 10 5
v 10 10 -7
v 10 12 5
v 10 12 -7
v 10 13 5
v 10 13 -7
v 10 15 5
v 10 15 -7
v 10 16 6
v 10 16 -8
v 11 5 7
v 11 5 -9
v 11 6 7
v 11 6 -9
v 11 16 7
v 11 16 -9
v 11 17 7
v 11 17 -9
v -6 5 10
v -6 6 10
v -6 16 10
v -6 17 10
v 6 5 10
v 6 6 10
v 6 16 10
v 6 17 10
v -5 0 9
v -5 5 9
v -5 6 9
v -5 16 9
v -4 0 9
v -4 4 9
v -4 10 9
v -4 11 9
v -4 13 9
v -4 15 9
v -2 7 9
v -2 9 9
v -2 11 9
v -2 12 9
v 2 7 9
v 2 9 9
v 2 11 9
v 2 12 9
v 4 0 9
v 4 4 9
v 4 10 9
v 4 11 9
v 4 13 9
v 4 15 9
v 5 0 9
v 5 5 9
v 5 6 9
v 5 16 9
v -11 5 7
v -11 6 7
v -11 16 7
v -11 17 7
v -6 5 7
v -6 6 7
v -6 16 7
v -6 17 7
v -5 0 7
v -5 4 7
v -4 0 7
v -4 4 7
v 4 0 7
v 4 4 7
v 5 0 7
v 5 4 7
v 6 5 7
v 6 6 7
v 6 16 7
v 6 17 7
v 11 5 7
v 11 6 7
v 11 16 7
v 11 17 7
v -10 0 6
v -10 5 6
v -10 6 6
v -10 16 6
v -9 0 6
v -9 4 6
v -9 7 6
v -9 9 6
v -9 10 6
v -9 12 6
v -9 13 6
v -9 15 6
v -6 7 6
v -6 9 6
v -6 10 6
v -6 12 6
v -6 13 6
v -6 15 6
v -5 4 6
v -5 5 6
v -5 6 6
v -5 16 6
v 5 4 6
v 5 5 6
v 5 6 6
v 5 16 6
v 6 7 6
v 6 9 6
v 6 10 6
v 6 12 6
v 6 13 6
v 6 15 6
v 9 0 6
v 9 4 6
v 9 7 6
v 9 9 6
v 9 10 6
v 9 12 6
v 9 13 6
v 9 15 6
v 10 0 6
v 10 5 6
v 10 6 6
v 10 16 6
v -10 0 -1
v -10 4 -1
v 10 0 -1
v 10 4 -1
v -10 16 -8
v -10 17 -8
v 10 16 -8
v 10 17 -8
v -5 16 9
v -5 17 9
v 5 16 9
v 5 17 9
v -5 0 8
v -5 4 8
v -4 0 8
v -4 4 8
v 4 0 8
v 4 4 8
v 5 0 8
v 5 4 8
v -10 16 6
v -10 17 6
v -5 0 6
v -5 4 6
v -5 16 6
v -5 17 6
v -4 0 6
v -4 4 6
v 4 0 6
v 4 4 6
v 5 0 6
v 5 4 6
v 5 16 6
v 5 17 6
v 10 16 6
v 10 17 6
v -10 0 5
v -10 4 5
v -9 0 5
v -9 4 5
v 9 0 5
v 9 4 5
v 10 0 5
v 10 4 5
v -10 0 -8
v -10 5 -8
v -10 6 -8
v -10 16 -8
v 10 0 -8
v 10 5 -8
v 10 6 -8
v 10 16 -8
v -11 5 -9
v -11 6 -9
v -11 16 -9
v -11 17 -9
v 11 5 -9
v 11 6 -9
v 11 16 -9
v 11 17 -9
v -5 0 9
v -4 0 9
v 4 0 9
v 5 0 9
v -5 0 8
v -4 0 8
v 4 0 8
v 5 0 8
v -5 0 7
v -4 0 7
v 4 0 7
v 5 0 7
v -10 0 6
v -9 0 6
v -5 0 6
v -4 0 6
v 4 0 6
v 5 0 6
v 9 0 6
v 10 0 6
v -10 0 5
v -9 0 5
v 9 0 5
v 10 0 5
v -10 0 -1
v 10 0 -1
v -10 0 -8
v 10 0 -8
v -4 4 9
v 4 4 9
v -5 4 8
v -4 4 8
v 4 4 8
v 5 4 8
v -5 4 7
v -4 4 7
v 4 4 7
v 5 4 7
v -9 4 6
v -5 4 6
v -4 4 6
v 4 4 6
v 5 4 6
v 9 4 6
v -10 4 5
v -9 4 5
v 9 4 5
v 10 4 5
v -10 4 -1
v 10 4 -1
v -6 5 10
v 6 5 10
v -5 5 9
v 5 5 9
v -11 5 7
v -6 5 7
v 6 5 7
v 11 5 7
v -10 5 6
v -5 5 6
v 5 5 6
v 10 5 6
v -10 5 -8
v 10 5 -8
v -11 5 -9
v 11 5 -9
v -6 16 10
v 6 16 10
v -5 16 9
v 5 16 9
v -11 16 7
v -6 16 7
v 6 16 7
v 11 16 7
v -10 16 6
v -5 16 6
v 5 16 6
v 10 16 6
v -10 16 -8
v 10 16 -8
v -11 16 -9
v 11 16 -9
v -6 6 10
v 6 6 10
v -5 6 9
v 5 6 9
v -11 6 7
v -6 6 7
v 6 6 7
v 11 6 7
v -10 6 6
v -5 6 6
v 5 6 6
v 10 6 6
v -10 6 -8
v 10 6 -8
v -11 6 -9
v 11 6 -9
v -5 16 9
v 5 16 9
v -10 16 6
v -5 16 6
v 5 16 6
v 10 16 6
v -10 16 -8
v 10 16 -8
v -6 17 10
v 6 17 10
v -5 17 9
v 5 17 9
v -11 17 7
v -6 17 7
v 6 17 7
v 11 17 7
v -10 17 6
v -5 17 6
v 5 17 6
v 10 17 6
v -10 17 -8
v 10 17 -8
v -11 17 -9
v 11 17 -9

# faces
f 3/4/1 2/4/1 1/4/1
f 4/4/1 2/4/1 3/4/1
f 7/4/1 6/4/1 5/4/1
f 8/4/1 6/4/1 7/4/1
f 13/3/1 10/3/1 9/3/1
f 14/3/1 12/3/1 11/3/1
f 15/3/1 13/3/1 9/3/1
f 15/3/1 14/3/1 13/3/1
f 16/3/1 12/3/1 14/3/1
f 16/3/1 14/3/1 15/3/1
f 19/2/1 18/2/1 17/2/1
f 20/2/1 18/2/1 19/2/1
f 21/2/1 19/2/1 17/2/1
f 21/5/1 20/5/1 19/5/1
f 22/2/1 18/2/1 20/2/1
f 22/5/1 20/5/1 21/5/1
f 23/2/1 21/2/1 17/2/1
f 23/2/1 22/2/1 21/2/1
f 24/2/1 18/2/1 22/2/1
f 24/2/1 22/2/1 23/2/1
f 25/2/1 23/2/1 17/2/1
f 25/5/1 24/5/1 23/5/1
f 26/2/1 18/2/1 24/2/1
f 26/5/1 24/5/1 25/5/1
f 27/2/1 25/2/1 17/2/1
f 27/2/1 26/2/1 25/2/1
f 28/2/1 18/2/1 26/2/1
f 28/2/1 26/2/1 27/2/1
f 29/2/1 27/2/1 17/2/1
f 29/5/1 28/5/1 27/5/1
f 30/2/1 18/2/1 28/2/1
f 30/5/1 28/5/1 29/5/1
f 31/2/1 29/2/1 17/2/1
f 31/2/1 30/2/1 29/2/1
f 32/2/1 18/2/1 30/2/1
f 32/2/1 30/2/1 31/2/1
f 35/4/1 34/4/1 33/4/1
f 36/4/1 34/4/1 35/4/1
f 39/4/1 38/4/1 37/4/1
f 40/4/1 38/4/1 39/4/1
f 45/3/1 42/3/1 41/3/1
f 46/3/1 44/3/1 43/3/1
f 47/3/1 44/3/1 46/3/1
f 48/3/1 45/3/1 41/3/1
f 48/3/1 46/3/1 45/3/1
f 48/3/1 47/3/1 46/3/1
f 49/3/1 47/3/1 48/3/1
f 52/2/1 51/2/1 50/2/1
f 53/2/1 51/2/1 52/2/1
f 58/3/1 55/3/1 54/3/1
f 59/3/1 55/3/1 58/3/1
f 60/3/1 57/3/1 56/3/1
f 61/3/1 57/3/1 60/3/1
f 64/4/1 63/4/1 62/4/1
f 65/4/1 63/4/1 64/4/1
f 68/3/1 67/3/1 66/3/1
f 69/3/1 67/3/1 68/3/1
f 72/4/1 71/4/1 70/4/1
f 73/4/1 71/4/1 72/4/1
f 74/4/2 75/4/2 76/4/2
f 76/4/2 75/4/2 77/4/2
f 78/3/2 79/3/2 80/3/2
f 80/3/2 79/3/2 81/3/2
f 82/4/2 83/4/2 84/4/2
f 84/4/2 83/4/2 85/4/2
f 86/3/2 87/3/2 90/3/2
f 90/3/2 87/3/2 91/3/2
f 88/3/2 89/3/2 92/3/2
f 92/3/2 89/3/2 93/3/2
f 94/3/2 95/3/2 98/3/2
f 96/3/2 97/3/2 99/3/2
f 99/3/2 97/3/2 100/3/2
f 94/3/2 98/3/2 101/3/2
f 98/3/2 99/3/2 101/3/2
f 99/3/2 100/3/2 101/3/2
f 101/3/2 100/3/2 102/3/2
f 103/2/2 104/2/2 105/2/2
f 105/2/2 104/2/2 106/2/2
f 107/4/2 108/4/2 109/4/2
f 109/4/2 108/4/2 110/4/2
f 111/4/2 112/4/2 113/4/2
f 113/4/2 112/4/2 114/4/2
f 115/3/2 116/3/2 119/3/2
f 117/3/2 118/3/2 120/3/2
f 115/3/2 119/3/2 121/3/2
f 119/3/2 120/3/2 121/3/2
f 120/3/2 118/3/2 122/3/2
f 121/3/2 120/3/2 122/3/2
f 123/2/2 124/2/2 125/2/2
f 125/2/2 124/2/2 126/2/2
f 123/2/2 125/2/2 127/2/2
f 125/5/2 126/5/2 127/5/2
f 126/2/2 124/2/2 128/2/2
f 127/5/2 126/5/2 128/5/2
f 123/2/2 127/2/2 129/2/2
f 127/2/2 128/2/2 129/2/2
f 128/2/2 124/2/2 130/2/2
f 129/2/2 128/2/2 130/2/2
f 123/2/2 129/2/2 131/2/2
f 129/5/2 130/5/2 131/5/2
f 130/2/2 124/2/2 132/2/2
f 131/5/2 130/5/2 132/5/2
f 123/2/2 131/2/2 133/2/2
f 131/2/2 132/2/2 133/2/2
f 132/2/2 124/2/2 134/2/2
f 133/2/2 132/2/2 134/2/2
f 123/2/2 133/2/2 135/2/2
f 133/5/2 134/5/2 135/5/2
f 134/2/2 124/2/2 136/2/2
f 135/5/2 134/5/2 136/5/2
f 123/2/2 135/2/2 137/2/2
f 135/2/2 136/2/2 137/2/2
f 136/2/2 124/2/2 138/2/2
f 137/2/2 136/2/2 138/2/2
f 139/4/2 140/4/2 141/4/2
f 141/4/2 140/4/2 142/4/2
f 143/4/2 144/4/2 145/4/2
f 145/4/2 144/4/2 146/4/2
f 151/4/3 148/4/3 147/4/3
f 152/4/3 148/4/3 151/4/3
f 153/4/3 150/4/3 149/4/3
f 154/4/3 150/4/3 153/4/3
f 159/3/3 156/3/3 155/3/3
f 160/3/3 156/3/3 159/3/3
f 161/2/3 158/2/3 157/2/3
f 162/2/3 158/2/3 161/2/3
f 163/2/3 158/2/3 162/2/3
f 164/2/3 158/2/3 163/2/3
f 165/2/3 161/2/3 157/2/3
f 166/2/3 161/2/3 165/2/3
f 167/1/3 162/1/3 161/1/3
f 167/2/3 163/2/3 162/2/3
f 168/2/3 163/2/3 167/2/3
f 169/5/3 166/5/3 165/5/3
f 169/2/3 165/2/3 157/2/3
f 170/2/3 161/2/3 166/2/3
f 170/5/3 166/5/3 169/5/3
f 171/1/3 168/1/3 167/1/3
f 171/1/3 167/1/3 161/1/3
f 172/2/3 163/2/3 168/2/3
f 172/1/3 168/1/3 171/1/3
f 174/3/3 156/3/3 160/3/3
f 175/1/3 171/1/3 161/1/3
f 175/2/3 161/2/3 170/2/3
f 175/2/3 170/2/3 169/2/3
f 176/2/3 172/2/3 171/2/3
f 176/1/3 171/1/3 175/1/3
f 177/2/3 163/2/3 172/2/3
f 177/2/3 172/2/3 176/2/3
f 177/5/3 164/5/3 163/5/3
f 178/2/3 158/2/3 164/2/3
f 178/5/3 164/5/3 177/5/3
f 179/3/3 174/3/3 173/3/3
f 180/3/3 156/3/3 174/3/3
f 180/3/3 174/3/3 179/3/3
f 181/2/3 176/2/3 175/2/3
f 181/2/3 177/2/3 176/2/3
f 181/2/3 178/2/3 177/2/3
f 181/2/3 175/2/3 169/2/3
f 181/2/3 169/2/3 157/2/3
f 182/2/3 158/2/3 178/2/3
f 182/2/3 178/2/3 181/2/3
f 187/4/3 184/4/3 183/4/3
f 188/4/3 184/4/3 187/4/3
f 189/4/3 186/4/3 185/4/3
f 190/4/3 186/4/3 189/4/3
f 193/3/3 192/3/3 191/3/3
f 194/3/3 192/3/3 193/3/3
f 197/3/3 196/3/3 195/3/3
f 198/3/3 196/3/3 197/3/3
f 203/4/3 200/4/3 199/4/3
f 204/4/3 200/4/3 203/4/3
f 205/4/3 202/4/3 201/4/3
f 206/4/3 202/4/3 205/4/3
f 211/3/3 208/3/3 207/3/3
f 212/3/3 208/3/3 211/3/3
f 213/2/3 210/2/3 209/2/3
f 214/2/3 210/2/3 213/2/3
f 215/2/3 210/2/3 214/2/3
f 216/2/3 210/2/3 215/2/3
f 217/2/3 210/2/3 216/2/3
f 218/2/3 210/2/3 217/2/3
f 219/2/3 213/2/3 209/2/3
f 219/5/3 214/5/3 213/5/3
f 220/2/3 215/2/3 214/2/3
f 220/5/3 214/5/3 219/5/3
f 221/5/3 216/5/3 215/5/3
f 221/2/3 215/2/3 220/2/3
f 222/2/3 217/2/3 216/2/3
f 222/5/3 216/5/3 221/5/3
f 223/5/3 218/5/3 217/5/3
f 223/2/3 217/2/3 222/2/3
f 224/2/3 210/2/3 218/2/3
f 224/5/3 218/5/3 223/5/3
f 225/3/3 208/3/3 212/3/3
f 226/3/3 208/3/3 225/3/3
f 227/2/3 223/2/3 222/2/3
f 227/2/3 222/2/3 221/2/3
f 227/2/3 221/2/3 220/2/3
f 227/2/3 224/2/3 223/2/3
f 227/2/3 220/2/3 219/2/3
f 227/2/3 219/2/3 209/2/3
f 228/2/3 210/2/3 224/2/3
f 228/2/3 224/2/3 227/2/3
f 233/2/3 232/2/3 231/2/3
f 234/2/3 232/2/3 233/2/3
f 235/2/3 232/2/3 234/2/3
f 236/2/3 232/2/3 235/2/3
f 237/2/3 232/2/3 236/2/3
f 238/2/3 232/2/3 237/2/3
f 240/3/3 230/3/3 229/3/3
f 241/2/3 233/2/3 231/2/3
f 241/5/3 234/5/3 233/5/3
f 242/2/3 235/2/3 234/2/3
f 242/5/3 234/5/3 241/5/3
f 243/5/3 236/5/3 235/5/3
f 243/2/3 235/2/3 242/2/3
f 244/2/3 237/2/3 236/2/3
f 244/5/3 236/5/3 243/5/3
f 245/5/3 238/5/3 237/5/3
f 245/2/3 237/2/3 244/2/3
f 246/2/3 232/2/3 238/2/3
f 246/5/3 238/5/3 245/5/3
f 247/3/3 240/3/3 239/3/3
f 248/3/3 230/3/3 240/3/3
f 248/3/3 240/3/3 247/3/3
f 249/2/3 245/2/3 244/2/3
f 249/2/3 241/2/3 231/2/3
f 249/2/3 246/2/3 245/2/3
f 249/2/3 242/2/3 241/2/3
f 249/2/3 244/2/3 243/2/3
f 249/2/3 243/2/3 242/2/3
f 250/2/3 232/2/3 246/2/3
f 250/2/3 246/2/3 249/2/3
f 253/3/3 252/3/3 251/3/3
f 254/3/3 252/3/3 253/3/3
f 257/4/3 256/4/3 255/4/3
f 258/4/3 256/4/3 257/4/3
f 259/4/4 260/4/4 261/4/4
f 261/4/4 260/4/4 262/4/4
f 263/3/4 264/3/4 265/3/4
f 265/3/4 264/3/4 266/3/4
f 267/3/4 268/3/4 269/3/4
f 269/3/4 268/3/4 270/3/4
f 271/4/4 272/4/4 275/4/4
f 275/4/4 272/4/4 276/4/4
f 273/3/4 274/3/4 277/3/4
f 277/3/4 274/3/4 278/3/4
f 279/3/4 280/3/4 281/3/4
f 281/3/4 280/3/4 282/3/4
f 283/4/4 284/4/4 285/4/4
f 285/4/4 284/4/4 286/4/4
f 287/3/4 288/3/4 289/3/4
f 289/3/4 288/3/4 290/3/4
f 291/3/4 292/3/4 293/3/4
f 293/3/4 292/3/4 294/3/4
f 295/3/4 296/3/4 299/3/4
f 299/3/4 296/3/4 300/3/4
f 297/2/4 298/2/4 301/2/4
f 301/2/4 298/2/4 302/2/4
f 303/4/4 304/4/4 307/4/4
f 307/4/4 304/4/4 308/4/4
f 305/4/4 306/4/4 309/4/4
f 309/4/4 306/4/4 310/4/4
f 315/3/5 312/3/5 311/3/5
f 316/3/5 312/3/5 315/3/5
f 317/3/5 314/3/5 313/3/5
f 318/3/5 314/3/5 317/3/5
f 325/3/5 320/3/5 319/3/5
f 326/3/5 320/3/5 325/3/5
f 327/3/5 322/3/5 321/3/5
f 328/3/5 322/3/5 327/3/5
f 331/3/5 324/3/5 323/3/5
f 332/3/5 324/3/5 331/3/5
f 333/3/5 330/3/5 329/3/5
f 334/3/5 330/3/5 333/3/5
f 337/3/5 336/3/5 335/3/5
f 338/3/5 336/3/5 337/3/5
f 342/3/5 340/3/5 339/3/5
f 343/3/5 340/3/5 342/3/5
f 345/3/5 342/3/5 341/3/5
f 345/3/5 344/3/5 343/3/5
f 345/3/5 343/3/5 342/3/5
f 346/3/5 344/3/5 345/3/5
f 347/3/5 344/3/5 346/3/5
f 348/3/5 344/3/5 347/3/5
f 351/3/5 347/3/5 346/3/5
f 352/3/5 347/3/5 351/3/5
f 356/3/5 353/3/5 352/3/5
f 356/3/5 354/3/5 353/3/5
f 356/3/5 352/3/5 351/3/5
f 356/3/5 351/3/5 350/3/5
f 356/3/5 350/3/5 349/3/5
f 357/3/5 354/3/5 356/3/5
f 359/3/5 356/3/5 355/3/5
f 359/3/5 358/3/5 357/3/5
f 359/3/5 357/3/5 356/3/5
f 360/3/5 358/3/5 359/3/5
f 363/4/5 362/4/5 361/4/5
f 364/4/5 362/4/5 363/4/5
f 366/4/5 363/4/5 361/4/5
f 367/4/5 362/4/5 364/4/5
f 369/4/5 366/4/5 365/4/5
f 370/4/5 363/4/5 366/4/5
f 370/4/5 366/4/5 369/4/5
f 371/4/5 368/4/5 367/4/5
f 371/4/5 367/4/5 364/4/5
f 372/4/5 368/4/5 371/4/5
f 373/4/5 369/4/5 365/4/5
f 374/4/5 368/4/5 372/4/5
f 375/4/5 373/4/5 365/4/5
f 375/4/5 374/4/5 373/4/5
f 376/4/5 368/4/5 374/4/5
f 376/4/5 374/4/5 375/4/5
f 379/4/5 378/4/5 377/4/5
f 380/4/5 378/4/5 379/4/5
f 382/4/5 379/4/5 377/4/5
f 383/4/5 378/4/5 380/4/5
f 385/4/5 382/4/5 381/4/5
f 386/4/5 379/4/5 382/4/5
f 386/4/5 382/4/5 385/4/5
f 387/4/5 384/4/5 383/4/5
f 387/4/5 383/4/5 380/4/5
f 388/4/5 384/4/5 387/4/5
f 389/4/5 385/4/5 381/4/5
f 390/4/5 384/4/5 388/4/5
f 391/4/5 389/4/5 381/4/5
f 391/4/5 390/4/5 389/4/5
f 392/4/5 384/4/5 390/4/5
f 392/4/5 390/4/5 391/4/5
f 393/4/6 394/4/6 395/4/6
f 395/4/6 394/4/6 396/4/6
f 393/4/6 395/4/6 398/4/6
f 396/4/6 394/4/6 399/4/6
f 397/4/6 398/4/6 401/4/6
f 398/4/6 395/4/6 402/4/6
f 401/4/6 398/4/6 402/4/6
f 399/4/6 400/4/6 403/4/6
f 396/4/6 399/4/6 403/4/6
f 403/4/6 400/4/6 404/4/6
f 397/4/6 401/4/6 405/4/6
f 404/4/6 400/4/6 406/4/6
f 397/4/6 405/4/6 407/4/6
f 405/4/6 406/4/6 407/4/6
f 406/4/6 400/4/6 408/4/6
f 407/4/6 406/4/6 408/4/6
f 409/2/6 410/2/6 412/2/6
f 412/2/6 410/2/6 413/2/6
f 411/2/6 412/2/6 415/2/6
f 413/2/6 414/2/6 415/2/6
f 412/2/6 413/2/6 415/2/6
f 415/2/6 414/2/6 416/2/6
f 417/4/6 418/4/6 419/4/6
f 419/4/6 418/4/6 420/4/6
f 417/4/6 419/4/6 422/4/6
f 420/4/6 418/4/6 423/4/6
f 421/4/6 422/4/6 425/4/6
f 422/4/6 419/4/6 426/4/6
f 425/4/6 422/4/6 426/4/6
f 423/4/6 424/4/6 427/4/6
f 420/4/6 423/4/6 427/4/6
f 427/4/6 424/4/6 428/4/6
f 421/4/6 425/4/6 429/4/6
f 428/4/6 424/4/6 430/4/6
f 421/4/6 429/4/6 431/4/6
f 429/4/6 430/4/6 431/4/6
f 430/4/6 424/4/6 432/4/6
f 431/4/6 430/4/6 432/4/6
