# MagicaVoxel @ Ephtracy

# material
mtllib str_2.mtl
usemtl palette

# normals
vn -1 0 0
vn 1 0 0
vn 0 0 1
vn 0 0 -1
vn 0 -1 0
vn 0 1 0

# texcoords
vt 0.146484 0.5
vt 0.650391 0.5
vt 0.912109 0.5
vt 0.986328 0.5
vt 0.994141 0.5

# verts
v -12 0 -0
v -12 0 -1
v -12 7 -0
v -12 7 -1
v -10 0 10
v -10 0 1
v -10 0 -0
v -10 0 -10
v -10 1 10
v -10 1 1
v -10 1 -0
v -10 1 -10
v -11 0 -0
v -11 0 -1
v -11 5 -0
v -11 5 -1
v -10 5 -0
v -10 5 -1
v -10 6 -0
v -10 6 -1
v -10 7 -0
v -10 7 -1
v -5 0 10
v -5 0 1
v -5 0 -0
v -5 0 -10
v -5 1 10
v -5 1 1
v -5 1 -0
v -5 1 -10
v -10 0 10
v -10 1 10
v -5 0 10
v -5 1 10
v -12 0 -0
v -12 7 -0
v -11 0 -0
v -11 5 -0
v -11 6 -0
v -11 7 -0
v -10 5 -0
v -10 6 -0
v -10 7 -0
v -12 0 -1
v -12 7 -1
v -11 0 -1
v -11 5 -1
v -11 6 -1
v -11 7 -1
v -10 5 -1
v -10 6 -1
v -10 7 -1
v -10 0 -10
v -10 1 -10
v -5 0 -10
v -5 1 -10
v -10 0 10
v -5 0 10
v -9 0 2
v -8 0 2
v -7 0 2
v -6 0 2
v -10 0 1
v -9 0 1
v -8 0 1
v -7 0 1
v -6 0 1
v -5 0 1
v -12 0 -0
v -11 0 -0
v -10 0 -0
v -9 0 -0
v -8 0 -0
v -7 0 -0
v -6 0 -0
v -5 0 -0
v -12 0 -1
v -11 0 -1
v -10 0 -10
v -5 0 -10
v -11 5 -0
v -10 5 -0
v -11 5 -1
v -10 5 -1
v -10 1 10
v -5 1 10
v -9 1 2
v -8 1 2
v -7 1 2
v -6 1 2
v -10 1 1
v -9 1 1
v -8 1 1
v -7 1 1
v -6 1 1
v -5 1 1
v -10 1 -0
v -9 1 -0
v -8 1 -0
v -7 1 -0
v -6 1 -0
v -5 1 -0
v -10 1 -10
v -5 1 -10
v -12 7 -0
v -11 7 -0
v -10 7 -0
v -12 7 -1
v -11 7 -1
v -10 7 -1

# faces
f 3/5/1 2/5/1 1/5/1
f 4/5/1 2/5/1 3/5/1
f 9/4/1 6/4/1 5/4/1
f 10/3/1 7/3/1 6/3/1
f 10/4/1 6/4/1 9/4/1
f 11/4/1 8/4/1 7/4/1
f 11/3/1 7/3/1 10/3/1
f 12/4/1 8/4/1 11/4/1
f 13/5/2 14/5/2 15/5/2
f 15/5/2 14/5/2 16/5/2
f 17/2/2 18/2/2 19/2/2
f 19/2/2 18/2/2 20/2/2
f 19/1/2 20/1/2 21/1/2
f 21/1/2 20/1/2 22/1/2
f 23/4/2 24/4/2 27/4/2
f 24/3/2 25/3/2 28/3/2
f 27/4/2 24/4/2 28/4/2
f 25/4/2 26/4/2 29/4/2
f 28/3/2 25/3/2 29/3/2
f 29/4/2 26/4/2 30/4/2
f 33/4/3 32/4/3 31/4/3
f 34/4/3 32/4/3 33/4/3
f 37/5/3 36/5/3 35/5/3
f 38/5/3 36/5/3 37/5/3
f 39/5/3 36/5/3 38/5/3
f 40/5/3 36/5/3 39/5/3
f 41/2/3 39/2/3 38/2/3
f 42/1/3 40/1/3 39/1/3
f 42/2/3 39/2/3 41/2/3
f 43/1/3 40/1/3 42/1/3
f 44/5/4 45/5/4 46/5/4
f 46/5/4 45/5/4 47/5/4
f 47/5/4 45/5/4 48/5/4
f 48/5/4 45/5/4 49/5/4
f 47/2/4 48/2/4 50/2/4
f 48/1/4 49/1/4 51/1/4
f 50/2/4 48/2/4 51/2/4
f 51/1/4 49/1/4 52/1/4
f 53/4/4 54/4/4 55/4/4
f 55/4/4 54/4/4 56/4/4
f 59/4/5 58/4/5 57/4/5
f 60/4/5 58/4/5 59/4/5
f 61/4/5 58/4/5 60/4/5
f 62/4/5 58/4/5 61/4/5
f 63/4/5 59/4/5 57/4/5
f 64/3/5 60/3/5 59/3/5
f 64/4/5 59/4/5 63/4/5
f 65/4/5 61/4/5 60/4/5
f 65/3/5 60/3/5 64/3/5
f 66/3/5 62/3/5 61/3/5
f 66/4/5 61/4/5 65/4/5
f 67/4/5 58/4/5 62/4/5
f 67/3/5 62/3/5 66/3/5
f 68/4/5 58/4/5 67/4/5
f 71/3/5 64/3/5 63/3/5
f 72/4/5 65/4/5 64/4/5
f 72/3/5 64/3/5 71/3/5
f 73/3/5 66/3/5 65/3/5
f 73/4/5 65/4/5 72/4/5
f 74/4/5 67/4/5 66/4/5
f 74/3/5 66/3/5 73/3/5
f 75/3/5 68/3/5 67/3/5
f 75/4/5 67/4/5 74/4/5
f 76/3/5 68/3/5 75/3/5
f 77/5/5 70/5/5 69/5/5
f 78/5/5 70/5/5 77/5/5
f 79/4/5 72/4/5 71/4/5
f 79/4/5 73/4/5 72/4/5
f 79/4/5 76/4/5 75/4/5
f 79/4/5 75/4/5 74/4/5
f 79/4/5 74/4/5 73/4/5
f 80/4/5 76/4/5 79/4/5
f 83/2/5 82/2/5 81/2/5
f 84/2/5 82/2/5 83/2/5
f 85/4/6 86/4/6 87/4/6
f 87/4/6 86/4/6 88/4/6
f 88/4/6 86/4/6 89/4/6
f 89/4/6 86/4/6 90/4/6
f 85/4/6 87/4/6 91/4/6
f 87/3/6 88/3/6 92/3/6
f 91/4/6 87/4/6 92/4/6
f 88/4/6 89/4/6 93/4/6
f 92/3/6 88/3/6 93/3/6
f 89/3/6 90/3/6 94/3/6
f 93/4/6 89/4/6 94/4/6
f 90/4/6 86/4/6 95/4/6
f 94/3/6 90/3/6 95/3/6
f 95/4/6 86/4/6 96/4/6
f 91/3/6 92/3/6 97/3/6
f 92/4/6 93/4/6 98/4/6
f 97/3/6 92/3/6 98/3/6
f 93/3/6 94/3/6 99/3/6
f 98/4/6 93/4/6 99/4/6
f 94/4/6 95/4/6 100/4/6
f 99/3/6 94/3/6 100/3/6
f 95/3/6 96/3/6 101/3/6
f 100/4/6 95/4/6 101/4/6
f 101/3/6 96/3/6 102/3/6
f 97/4/6 98/4/6 103/4/6
f 98/4/6 99/4/6 103/4/6
f 101/4/6 102/4/6 103/4/6
f 100/4/6 101/4/6 103/4/6
f 99/4/6 100/4/6 103/4/6
f 103/4/6 102/4/6 104/4/6
f 105/5/6 106/5/6 108/5/6
f 106/1/6 107/1/6 109/1/6
f 108/5/6 106/5/6 109/5/6
f 109/1/6 107/1/6 110/1/6
